<svg xmlns="http://www.w3.org/2000/svg" xmlns:svg="http://www.w3.org/2000/svg" xmlns:xlink="http://www.w3.org/1999/xlink" version="1.0" height="1026.0000008940697pt" width="891.05pt" viewBox="143.95 27 899.05 1032.0000008940697" ><defs><style type="text/css">
            @font-face {
                font-family: 'noto_regular';
                src: url('https://app.creately.com/diagram/assets/fonts/noto/noto-regular.woff') format('woff'),
                     url('https://app.creately.com/diagram/assets/fonts/noto/noto-regular.woff2') format('woff2');
                font-weight: normal;
                font-style: normal;
            }
        p {
            margin: 0;
        }
        </style></defs><defs><style>
            span{ display: inline-block; }
        </style></defs><g id="7pkwot8akb"><g transform="translate(490 190)"><path d="M 96.19037473678588,69.756 C 96.19037473678588,81.213 90.94288280433655,90.5 84.46918287296293,90.5 L 12.013563823509216,90.5 C 5.53986389213562,90.5 0.29237195968627927,81.213 0.29237195968627927,69.756 L 0.29237195968627927,21.242 C 0.29237195968627927,9.786 5.53986389213562,0.5 12.013563823509216,0.5 L 84.46918287296293,0.5 C 90.94288280433653,0.5 96.19037473678588,9.786 96.19037473678588,21.242 L 96.19037473678588,69.756 Z" fill="rgb(255, 255, 255)" stroke="rgb(0, 0, 0)" stroke-width="1.5" vector-effect="non-scaling-stroke"/></g><g transform="translate(499.19999980347336, 216.8) rotate(0, 39, 0)" width="78" height="34"><text text-decoration="none" x="14" fill="#000000" font-size="9pt" font-family="Arial"  y="13">Apply&#160;</text><text text-decoration="none" x="48" fill="#000000" font-size="9pt" font-family="Arial"  y="13">for</text><text text-decoration="none" x="64" fill="#000000" font-size="9pt" font-family="Arial"  y="13"></text><text text-decoration="none" x="2" fill="#000000" font-size="9pt" font-family="Arial"  y="35">Membership&#160;</text><text text-decoration="none" x="76" fill="#4b4b4b" font-size="10pt" font-family="noto_regular"  y="35"></text></g></g><g id="c5ld23uaza"><g transform="translate(495 425)"><path d="M 99.6969750213623,69.756 C 99.6969750213623,81.213 94.25818685211182,90.5 87.54848952407836,90.5 L 12.451515816497803,90.5 C 5.7418184884643555,90.5 0.3030303192138672,81.213 0.3030303192138672,69.756 L 0.3030303192138672,21.242 C 0.3030303192138672,9.786 5.7418184884643555,0.5 12.451515816497803,0.5 L 87.54848952407836,0.5 C 94.2581868521118,0.5 99.6969750213623,9.786 99.6969750213623,21.242 L 99.6969750213623,69.756 Z" fill="rgb(255, 255, 255)" stroke="rgb(0, 0, 0)" stroke-width="1.5" vector-effect="non-scaling-stroke"/></g><g transform="translate(513.4999988198281, 451.8) rotate(0, 31.5, 0)" width="63" height="34"><text text-decoration="none" x="3" fill="#000000" font-size="9pt" font-family="Arial"  y="13">Enters&#160;</text><text text-decoration="none" x="42" fill="#000000" font-size="9pt" font-family="Arial"  y="13">the</text><text text-decoration="none" x="60" fill="#000000" font-size="9pt" font-family="Arial"  y="13"></text><text text-decoration="none" x="17" fill="#000000" font-size="9pt" font-family="Arial"  y="35">Gym&#160;</text><text text-decoration="none" x="46" fill="#4b4b4b" font-size="10pt" font-family="noto_regular"  y="35"></text></g></g><g id="1utm2i1tn4"><g transform="translate(290 95)"><path d="M 0.28125,0.5 L 89.71875,0.5 L 89.71875,89.5 L 0.28125,89.5 Z" fill="rgb(246, 246, 246)" stroke="rgb(98, 98, 98)" stroke-width="1.5" vector-effect="non-scaling-stroke"/></g><g transform="translate(306, 128.3) rotate(0, 0, 0)" width="53" height="19"><text text-decoration="none" x="0" fill="#000000" font-size="9pt" font-family="Arial"  y="17">Member&#160;</text><text text-decoration="none" x="51" fill="#4b4b4b" font-size="10pt" font-family="noto_regular"  y="17"></text></g></g><g id="25kt2oh7vp"><mask id="1391e" x="325" y="175" width="230" height="260" maskUnits="userSpaceOnUse"><rect x="325" y="175" width="230" height="260" fill="white" /><rect x="405.8181818181818" y="292.5" width="132" height="25" fill="black" /></mask><g mask="url(#1391e)"><path d="M 545,425 L 545,305 L 440,305 L 335,305 L 335,185" fill="none"/><path d="M 545,425 L 538.5028248587571,431.95652173913044 M 545,425 L 551.4971751412429,431.95652173913044 Z" fill="rgb(255,255,255)"/></g><g transform="translate(408.8181818181818, 295.5)" width="126" height="19"><text text-decoration="none" x="4" fill="rgb(0, 0, 0)" font-size="9pt" font-family="Arial"  y="17">Membership&#160;</text><text text-decoration="none" x="78" fill="rgb(0, 0, 0)" font-size="9pt" font-family="Arial"  y="17">number</text><text text-decoration="none" x="122" fill="#4b4b4b" font-size="10pt" font-family="noto_regular"  y="17"></text></g></g><g id="1e5909ix08"><mask id="519c9" x="572" y="222" width="231" height="26" maskUnits="userSpaceOnUse"><rect x="572" y="222" width="231" height="26" fill="white" /><rect x="616.918439716312" y="222.5" width="99" height="25" fill="black" /></mask><g mask="url(#519c9)"><path d="M 585,235 L 790,235" fill="none" stroke="#000000" stroke-width="1.5" stroke-linecap="round" stroke-linejoin="round"/><path d="M 790,235 L 781.304347826087,229.25 L 781.304347826087,240.75 Z" fill="rgb(0,0,0)" stroke="#000000" stroke-width="1.5" stroke-linecap="round" stroke-linejoin="round"/></g><g transform="translate(619.918439716312, 225.5)" width="93" height="19"><text text-decoration="none" x="2" fill="rgb(0, 0, 0)" font-size="9pt" font-family="Arial"  y="17">Personal&#160;</text><text text-decoration="none" x="54" fill="rgb(0, 0, 0)" font-size="9pt" font-family="Arial"  y="17">details</text><text text-decoration="none" x="91" fill="#4b4b4b" font-size="10pt" font-family="noto_regular"  y="17"></text></g></g><g id="1wz3o6x4kc"><mask id="b54cc" x="557" y="222" width="246" height="211" maskUnits="userSpaceOnUse"><rect x="557" y="222" width="246" height="211" fill="white" /><rect x="538.8556701030927" y="350.5" width="132" height="25" fill="black" /></mask><g mask="url(#b54cc)"><path d="M 570,420 L 570,363 L 659.5,363 L 749,363 L 749,299 L 749,235 L 790,235" fill="none" stroke="#000000" stroke-width="1.5" stroke-linecap="round" stroke-linejoin="round"/><path d="M 790,235 L 781.304347826087,229.25 L 781.304347826087,240.75 Z" fill="rgb(0,0,0)" stroke="#000000" stroke-width="1.5" stroke-linecap="round" stroke-linejoin="round"/></g><g transform="translate(541.8556701030927, 353.5)" width="126" height="19"><text text-decoration="none" x="4" fill="rgb(0, 0, 0)" font-size="9pt" font-family="Arial"  y="17">Membership&#160;</text><text text-decoration="none" x="78" fill="rgb(0, 0, 0)" font-size="9pt" font-family="Arial"  y="17">number</text><text text-decoration="none" x="122" fill="#4b4b4b" font-size="10pt" font-family="noto_regular"  y="17"></text></g></g><g id="1kt2jyxzne"><g transform="translate(790 205)"><path d="M 136.8181824684143,0 L 0,0 L 0,60.00000059604645 L 136.8181824684143,60.00000059604645" fill="rgba(255,255,255,1)" stroke="#000000" stroke-width="1.5" stroke-linecap="round" stroke-linejoin="round"/></g><g transform="translate(801.4090912342072, 225.50000029802322) rotate(0, 57, 9.5)" width="114" height="19"><text text-decoration="none" x="6.5" fill="rgb(0, 0, 0)" font-size="9pt" font-family="Arial"  y="17">m&#160;</text><text text-decoration="none" x="17.5" fill="rgb(0, 0, 0)" font-size="8pt" font-family="Arial"  y="17">ember&#x27;s&#160;</text><text text-decoration="none" x="60.5" fill="rgb(0, 0, 0)" font-size="8pt" font-family="Arial"  y="17">database</text><text text-decoration="none" x="107.5" fill="#4b4b4b" font-size="10pt" font-family="noto_regular"  y="17"></text></g></g><g id="1pqaschovs"><mask id="effee" x="555" y="153" width="245" height="92" maskUnits="userSpaceOnUse"><rect x="555" y="153" width="245" height="92" fill="white" /><rect x="587.3426573426573" y="150.5" width="180" height="25" fill="black" /></mask><g mask="url(#effee)"><path d="M 565,190 L 565,163 L 657.120686674118,163 L 749.241373348236,163 L 749.241373348236,199 L 749.241373348236,235 L 790,235" fill="none"/><path d="M 565,190 L 558.5028248587571,196.95652173913044 M 565,190 L 571.4971751412429,196.95652173913044 Z" fill="rgb(255,255,255)"/></g><g transform="translate(590.3426573426573, 153.5)" width="174" height="19"><text text-decoration="none" x="5.5" fill="rgb(0, 0, 0)" font-size="9pt" font-family="Arial"  y="17">Creates&#160;</text><text text-decoration="none" x="52.5" fill="rgb(0, 0, 0)" font-size="9pt" font-family="Arial"  y="17">member&#160;</text><text text-decoration="none" x="103.5" fill="rgb(0, 0, 0)" font-size="9pt" font-family="Arial"  y="17">in&#160;</text><text text-decoration="none" x="116.5" fill="rgb(0, 0, 0)" font-size="9pt" font-family="Arial"  y="17">database</text><text text-decoration="none" x="168.5" fill="#4b4b4b" font-size="10pt" font-family="noto_regular"  y="17"></text></g></g><g id="9byljne4im"><mask id="ded8f" x="350" y="180" width="150" height="65" maskUnits="userSpaceOnUse"><rect x="350" y="180" width="150" height="65" fill="white" /><rect x="379.91735537190084" y="222.5" width="90" height="25" fill="black" /></mask><g mask="url(#ded8f)"><path d="M 490,235 L 360,235 L 360,190" fill="none"/><path d="M 490,235 L 496.95652173913044,241.49717514124293 M 490,235 L 496.95652173913044,228.50282485875707 Z" fill="rgb(255,255,255)"/></g><g transform="translate(382.91735537190084, 225.5)" width="84" height="19"><text text-decoration="none" x="3.5" fill="rgb(0, 0, 0)" font-size="8pt" font-family="Arial"  y="17">Personal&#160;</text><text text-decoration="none" x="51.5" fill="rgb(0, 0, 0)" font-size="8pt" font-family="Arial"  y="17">detail</text><text text-decoration="none" x="80.5" fill="#4b4b4b" font-size="10pt" font-family="noto_regular"  y="17"></text></g></g><g id="9lud22ctgp"><mask id="3275c" x="370" y="130" width="180" height="70" maskUnits="userSpaceOnUse"><rect x="370" y="130" width="180" height="70" fill="white" /><rect x="383.88461538461536" y="127.5" width="178" height="25" fill="black" /></mask><g mask="url(#3275c)"><path d="M 540,190 L 540,140 L 380,140" fill="none"/><path d="M 380,140 L 386.95652173913044,146.49717514124293 M 380,140 L 386.95652173913044,133.50282485875707 Z" fill="rgb(255,255,255)"/></g><g transform="translate(386.88461538461536, 130.5)" width="172" height="19"><text text-decoration="none" x="4.5" fill="rgb(0, 0, 0)" font-size="9pt" font-family="Arial"  y="17">Creates&#160;</text><text text-decoration="none" x="51.5" fill="rgb(0, 0, 0)" font-size="9pt" font-family="Arial"  y="17">Member&#160;</text><text text-decoration="none" x="102.5" fill="rgb(0, 0, 0)" font-size="9pt" font-family="Arial"  y="17">in&#160;</text><text text-decoration="none" x="115.5" fill="rgb(0, 0, 0)" font-size="9pt" font-family="Arial"  y="17">database</text><text text-decoration="none" x="167.5" fill="#4b4b4b" font-size="10pt" font-family="noto_regular"  y="17"></text></g></g><g id="bqw7a6f309"><g transform="translate(495 30)"><path d="M 110.6252961730957,69.756 C 110.6252961730957,81.213 104.59033320739748,90.5 97.14514990081787,90.5 L 13.816393373107912,90.5 C 6.371210066528321,90.5 0.33624710083007814,81.213 0.33624710083007814,69.756 L 0.33624710083007814,21.242 C 0.33624710083007814,9.786 6.371210066528321,0.5 13.816393373107912,0.5 L 97.14514990081787,0.5 C 104.59033320739745,0.5 110.6252961730957,9.786 110.6252961730957,21.242 L 110.6252961730957,69.756 Z" fill="rgb(255, 255, 255)" stroke="rgb(0, 0, 0)" stroke-width="1.5" vector-effect="non-scaling-stroke"/></g><g transform="translate(497.20000010139523, 63.8) rotate(0, 0, 0)" width="108" height="19"><text text-decoration="none" x="0" fill="#000000" font-size="9pt" font-family="Arial"  y="17">Book&#160;</text><text text-decoration="none" x="31" fill="#000000" font-size="9pt" font-family="Arial"  y="17">Sport&#160;</text><text text-decoration="none" x="64" fill="#000000" font-size="9pt" font-family="Arial"  y="17">event&#160;</text><text text-decoration="none" x="98" fill="#4b4b4b" font-size="10pt" font-family="noto_regular"  y="17"></text></g></g><g id="bubvx09x8x"><mask id="00dd5" x="322" y="62" width="186" height="46" maskUnits="userSpaceOnUse"><rect x="322" y="62" width="186" height="46" fill="white" /><rect x="327.5" y="62.5" width="35" height="25" fill="black" /></mask><g mask="url(#00dd5)"><path d="M 335,95 L 335,75 L 495,75" fill="none" stroke="#626262" stroke-width="1.5" stroke-linecap="round" stroke-linejoin="round"/><path d="M 495,75 L 486.30434782608694,69.25 L 486.30434782608694,80.75 Z" fill="rgb(98,98,98)" stroke="#626262" stroke-width="1.5" stroke-linecap="round" stroke-linejoin="round"/></g><g transform="translate(330.5, 65.5)" width="29" height="19"><text text-decoration="none" x="0.5" fill="rgb(0, 0, 0)" font-size="9pt" font-family="Arial"  y="17">Book</text><text text-decoration="none" x="28.5" fill="#4b4b4b" font-size="10pt" font-family="noto_regular"  y="17"></text></g></g><g id="1nr3dei1eu"><g transform="translate(785 55)"><path d="M 200,0 L 0,0 L 0,35 L 200,35" fill="rgba(255,255,255,1)" stroke="#000000" stroke-width="1.5" stroke-linecap="round" stroke-linejoin="round"/></g><g transform="translate(853.5, 63) rotate(0, 31.5, 9.5)" width="63" height="19"><text text-decoration="none" x="3" fill="rgb(0, 0, 0)" font-size="9pt" font-family="Arial"  y="17">Events&#160;</text><text text-decoration="none" x="43" fill="rgb(0, 0, 0)" font-size="9pt" font-family="Arial"  y="17">file</text><text text-decoration="none" x="60" fill="#4b4b4b" font-size="10pt" font-family="noto_regular"  y="17"></text></g></g><g id="27v3sccja5"><mask id="0f8c9" x="595" y="65" width="200" height="20" maskUnits="userSpaceOnUse"><rect x="595" y="65" width="200" height="20" fill="white" /><rect x="650.3571428571429" y="62.5" width="35" height="25" fill="black" /></mask><g mask="url(#0f8c9)"><path d="M 785,75 L 605,75" fill="none"/><path d="M 785,75 L 791.9565217391304,81.49717514124293 M 785,75 L 791.9565217391304,68.50282485875707 Z" fill="rgb(255,255,255)"/></g><g transform="translate(653.3571428571429, 65.5)" width="29" height="19"><text text-decoration="none" x="0.5" fill="rgb(0, 0, 0)" font-size="9pt" font-family="Arial"  y="17">Book</text><text text-decoration="none" x="28.5" fill="#4b4b4b" font-size="10pt" font-family="noto_regular"  y="17"></text></g></g><g id="4ktla2bpb7"><g transform="translate(495 545)"><path d="M 99.6969750213623,69.756 C 99.6969750213623,81.213 94.25818685211182,90.5 87.54848952407836,90.5 L 12.451515816497803,90.5 C 5.7418184884643555,90.5 0.3030303192138672,81.213 0.3030303192138672,69.756 L 0.3030303192138672,21.242 C 0.3030303192138672,9.786 5.7418184884643555,0.5 12.451515816497803,0.5 L 87.54848952407836,0.5 C 94.2581868521118,0.5 99.6969750213623,9.786 99.6969750213623,21.242 L 99.6969750213623,69.756 Z" fill="rgb(255, 255, 255)" stroke="rgb(0, 0, 0)" stroke-width="1.5" vector-effect="non-scaling-stroke"/></g><g transform="translate(521.9999988198281, 570.8) rotate(0, 23, 0)" width="46" height="34"><text text-decoration="none" x="0.5" fill="#000000" font-size="9pt" font-family="Arial"  y="13">Reserve</text><text text-decoration="none" x="45.5" fill="#000000" font-size="9pt" font-family="Arial"  y="13"></text><text text-decoration="none" x="3" fill="#000000" font-size="9pt" font-family="Arial"  y="35">Courts&#160;</text><text text-decoration="none" x="43" fill="#4b4b4b" font-size="10pt" font-family="noto_regular"  y="35"></text></g></g><g id="2pvsyugyi1"><mask id="8237d" x="257" y="127" width="251" height="476" maskUnits="userSpaceOnUse"><rect x="257" y="127" width="251" height="476" fill="white" /><rect x="255.5" y="425.1833073322933" width="29" height="25" fill="black" /></mask><g mask="url(#8237d)"><path d="M 290,140 L 270,140 L 270,365 L 270,590 L 495,590" fill="none" stroke="#626262" stroke-width="1.5" stroke-linecap="round" stroke-linejoin="round"/><path d="M 495,590 L 488.04347826086956,583.5028248587571 M 495,590 L 488.04347826086956,596.4971751412429 Z" fill="rgb(255,255,255)" stroke="#626262" stroke-width="1.5" stroke-linecap="round" stroke-linejoin="round"/></g><g transform="translate(258.5, 428.1833073322933)" width="23" height="19"><text text-decoration="none" x="0.5" fill="rgb(0, 0, 0)" font-size="9pt" font-family="Arial"  y="17">Can</text><text text-decoration="none" x="22.5" fill="#4b4b4b" font-size="10pt" font-family="noto_regular"  y="17"></text></g></g><g id="1ldzj0ryaa"><g transform="translate(815 570)"><path d="M 200,0 L 0,0 L 0,35 L 200,35" fill="rgba(255,255,255,1)" stroke="#000000" stroke-width="1.5" stroke-linecap="round" stroke-linejoin="round"/></g><g transform="translate(882.5, 570.5) rotate(0, 32.5, 17)" width="65" height="34"><text text-decoration="none" x="32.5" fill="rgb(0, 0, 0)" font-size="9pt" font-family="Arial"  y="13"></text><text text-decoration="none" x="2.5" fill="rgb(0, 0, 0)" font-size="9pt" font-family="Arial"  y="35">Court&#160;</text><text text-decoration="none" x="36.5" fill="rgb(0, 0, 0)" font-size="9pt" font-family="Arial"  y="35">files&#160;</text><text text-decoration="none" x="62.5" fill="#4b4b4b" font-size="10pt" font-family="noto_regular"  y="35"></text></g></g><g id="120uckhvk0"><mask id="082e9" x="582" y="577" width="246" height="26" maskUnits="userSpaceOnUse"><rect x="582" y="577" width="246" height="26" fill="white" /><rect x="649" y="577.5" width="112" height="25" fill="black" /></mask><g mask="url(#082e9)"><path d="M 595,590 L 815,590" fill="none" stroke="#000000" stroke-width="1.5" stroke-linecap="round" stroke-linejoin="round"/><path d="M 815,590 L 806.304347826087,584.25 L 806.304347826087,595.75 Z" fill="rgb(0,0,0)" stroke="#000000" stroke-width="1.5" stroke-linecap="round" stroke-linejoin="round"/></g><g transform="translate(652, 580.5)" width="106" height="19"><text text-decoration="none" x="3" fill="rgb(0, 0, 0)" font-size="9pt" font-family="Arial"  y="17">Reservation&#160;</text><text text-decoration="none" x="72" fill="rgb(0, 0, 0)" font-size="9pt" font-family="Arial"  y="17">detail</text><text text-decoration="none" x="103" fill="#4b4b4b" font-size="10pt" font-family="noto_regular"  y="17"></text></g></g><g id="qagbi4ojif"><g transform="translate(215 650)"><path d="M 0.32812503814697264,0.5 L 104.67188716888427,0.5 L 104.67188716888427,89.5 L 0.32812503814697264,89.5 Z" fill="rgb(246, 246, 246)" stroke="rgb(98, 98, 98)" stroke-width="1.5" vector-effect="non-scaling-stroke"/></g><g transform="translate(225.4499997342428, 683.3) rotate(0, 0, 0)" width="83" height="19"><text text-decoration="none" x="0" fill="#000000" font-size="9pt" font-family="Arial"  y="17">Management&#160;</text><text text-decoration="none" x="78" fill="#4b4b4b" font-size="10pt" font-family="noto_regular"  y="17"></text></g></g><g id="dv64v2qo2n"><g transform="translate(490 650)"><path d="M 104.68181875228882,69.756 C 104.68181875228882,81.213 98.97109144844056,90.5 91.92590959186553,90.5 L 13.07409098033905,90.5 C 6.028909123764039,90.5 0.3181818199157715,81.213 0.3181818199157715,69.756 L 0.3181818199157715,21.242 C 0.3181818199157715,9.786 6.028909123764039,0.5 13.07409098033905,0.5 L 91.92590959186553,0.5 C 98.97109144844055,0.5 104.68181875228882,9.786 104.68181875228882,21.242 L 104.68181875228882,69.756 Z" fill="rgb(255, 255, 255)" stroke="rgb(0, 0, 0)" stroke-width="1.5" vector-effect="non-scaling-stroke"/></g><g transform="translate(503.9999988198281, 675.8) rotate(0, 38.5, 0)" width="77" height="34"><text text-decoration="none" x="2.5" fill="#000000" font-size="9pt" font-family="Arial"  y="13">Register&#160;</text><text text-decoration="none" x="51.5" fill="#000000" font-size="9pt" font-family="Arial"  y="13">new</text><text text-decoration="none" x="74.5" fill="#000000" font-size="9pt" font-family="Arial"  y="13"></text><text text-decoration="none" x="13" fill="#000000" font-size="9pt" font-family="Arial"  y="35">member&#160;</text><text text-decoration="none" x="64" fill="#4b4b4b" font-size="10pt" font-family="noto_regular"  y="35"></text></g></g><g id="2qa4yfbcw5"><mask id="f9500" x="582" y="252" width="246" height="456" maskUnits="userSpaceOnUse"><rect x="582" y="252" width="246" height="456" fill="white" /><rect x="677.903462749213" y="682.5" width="62" height="25" fill="black" /></mask><g mask="url(#f9500)"><path d="M 595,695 L 815,695 L 815,265" fill="none" stroke="#000000" stroke-width="1.5" stroke-linecap="round" stroke-linejoin="round"/><path d="M 815,265 L 809.25,273.69565217391306 L 820.75,273.69565217391306 Z" fill="rgb(0,0,0)" stroke="#000000" stroke-width="1.5" stroke-linecap="round" stroke-linejoin="round"/></g><g transform="translate(680.903462749213, 685.5)" width="56" height="19"><text text-decoration="none" x="1.5" fill="rgb(0, 0, 0)" font-size="9pt" font-family="Arial"  y="17">Recorded</text><text text-decoration="none" x="54.5" fill="#4b4b4b" font-size="10pt" font-family="noto_regular"  y="17"></text></g></g><g id="6a87ck7pdf"><g transform="translate(480 755)"><path d="M 114.65151248931886,69.756 C 114.65151248931886,81.213 108.39690657394411,90.5 100.68075523796081,90.5 L 14.3192420917511,90.5 C 6.6030907557678225,90.5 0.34848484039306643,81.213 0.34848484039306643,69.756 L 0.34848484039306643,21.242 C 0.34848484039306643,9.786 6.6030907557678225,0.5 14.3192420917511,0.5 L 100.68075523796081,0.5 C 108.3969065739441,0.5 114.65151248931886,9.786 114.65151248931886,21.242 L 114.65151248931886,69.756 Z" fill="rgb(255, 255, 255)" stroke="rgb(0, 0, 0)" stroke-width="1.5" vector-effect="non-scaling-stroke"/></g><g transform="translate(497.95000058957294, 780.8) rotate(0, 39.5, 0)" width="79" height="34"><text text-decoration="none" x="11.5" fill="#000000" font-size="9pt" font-family="Arial"  y="13">Record&#160;&#160;</text><text text-decoration="none" x="56.5" fill="#000000" font-size="9pt" font-family="Arial"  y="13">of</text><text text-decoration="none" x="67.5" fill="#000000" font-size="9pt" font-family="Arial"  y="13"></text><text text-decoration="none" x="2" fill="#000000" font-size="9pt" font-family="Arial"  y="35">Fitness&#160;</text><text text-decoration="none" x="44" fill="#000000" font-size="9pt" font-family="Arial"  y="35">Class&#160;</text><text text-decoration="none" x="77" fill="#4b4b4b" font-size="10pt" font-family="noto_regular"  y="35"></text></g></g><g id="79jroe186l"><g transform="translate(840 780)"><path d="M 200,0 L 0,0 L 0,35 L 200,35" fill="rgba(255,255,255,1)" stroke="#000000" stroke-width="1.5" stroke-linecap="round" stroke-linejoin="round"/></g><g transform="translate(912, 788) rotate(0, 28, 9.5)" width="56" height="19"><text text-decoration="none" x="2.5" fill="rgb(0, 0, 0)" font-size="9pt" font-family="Arial"  y="17">Schedule</text><text text-decoration="none" x="53.5" fill="#4b4b4b" font-size="10pt" font-family="noto_regular"  y="17"></text></g></g><g id="2hnqef8qhz"><mask id="73ec3" x="582" y="787" width="271" height="26" maskUnits="userSpaceOnUse"><rect x="582" y="787" width="271" height="26" fill="white" /><rect x="743.9712041884817" y="787.5" width="33" height="25" fill="black" /></mask><g mask="url(#73ec3)"><path d="M 595,800 L 840,800" fill="none" stroke="#000000" stroke-width="1.5" stroke-linecap="round" stroke-linejoin="round"/><path d="M 840,800 L 831.304347826087,794.25 L 831.304347826087,805.75 Z" fill="rgb(0,0,0)" stroke="#000000" stroke-width="1.5" stroke-linecap="round" stroke-linejoin="round"/></g><g transform="translate(746.9712041884817, 790.5)" width="27" height="19"><text text-decoration="none" x="1.5" fill="rgb(0, 0, 0)" font-size="9pt" font-family="Arial"  y="17">kept</text><text text-decoration="none" x="25.5" fill="#4b4b4b" font-size="10pt" font-family="noto_regular"  y="17"></text></g></g><g id="9suzu8gcc3"><g transform="translate(485 865)"><path d="M 99.6969750213623,69.756 C 99.6969750213623,81.213 94.25818685211182,90.5 87.54848952407836,90.5 L 12.451515816497803,90.5 C 5.7418184884643555,90.5 0.3030303192138672,81.213 0.3030303192138672,69.756 L 0.3030303192138672,21.242 C 0.3030303192138672,9.786 5.7418184884643555,0.5 12.451515816497803,0.5 L 87.54848952407836,0.5 C 94.2581868521118,0.5 99.6969750213623,9.786 99.6969750213623,21.242 L 99.6969750213623,69.756 Z" fill="rgb(255, 255, 255)" stroke="rgb(0, 0, 0)" stroke-width="1.5" vector-effect="non-scaling-stroke"/></g><g transform="translate(494.9999988198281, 890.8) rotate(0, 40, 0)" width="80" height="34"><text text-decoration="none" x="1" fill="#000000" font-size="9pt" font-family="Arial"  y="13">Prepare&#160;</text><text text-decoration="none" x="49" fill="#000000" font-size="9pt" font-family="Arial"  y="13">Class</text><text text-decoration="none" x="79" fill="#000000" font-size="9pt" font-family="Arial"  y="13"></text><text text-decoration="none" x="13" fill="#000000" font-size="9pt" font-family="Arial"  y="35">Schedule&#160;</text><text text-decoration="none" x="67" fill="#4b4b4b" font-size="10pt" font-family="noto_regular"  y="35"></text></g></g><g id="1cxiktpbe4"><mask id="8e2fc" x="310" y="685" width="190" height="20" maskUnits="userSpaceOnUse"><rect x="310" y="685" width="190" height="20" fill="white" /><rect x="370.67241379310343" y="682.5" width="54" height="25" fill="black" /></mask><g mask="url(#8e2fc)"><path d="M 490,695 L 320,695" fill="none"/><path d="M 490,695 L 496.95652173913044,701.4971751412429 M 490,695 L 496.95652173913044,688.5028248587571 Z" fill="rgb(255,255,255)"/></g><g transform="translate(373.67241379310343, 685.5)" width="48" height="19"><text text-decoration="none" x="1" fill="rgb(0, 0, 0)" font-size="9pt" font-family="Arial"  y="17">Register</text><text text-decoration="none" x="47" fill="#4b4b4b" font-size="10pt" font-family="noto_regular"  y="17"></text></g></g><g id="xz3o4cvnvz"><mask id="c7653" x="260" y="730" width="230" height="80" maskUnits="userSpaceOnUse"><rect x="260" y="730" width="230" height="80" fill="white" /><rect x="263.75" y="787.5" width="35" height="25" fill="black" /></mask><g mask="url(#c7653)"><path d="M 480,800 L 270,800 L 270,740" fill="none"/><path d="M 480,800 L 486.95652173913044,806.4971751412429 M 480,800 L 486.95652173913044,793.5028248587571 Z" fill="rgb(255,255,255)"/></g><g transform="translate(266.75, 790.5)" width="29" height="19"><text text-decoration="none" x="1" fill="rgb(0, 0, 0)" font-size="9pt" font-family="Arial"  y="17">keep</text><text text-decoration="none" x="28" fill="#4b4b4b" font-size="10pt" font-family="noto_regular"  y="17"></text></g></g><g id="o47gw8iynh"><g transform="translate(479.9 980)"><path d="M 101.25782489776611,58.257758927106856 C 101.25782489776611,67.82624255615472 95.73388738632202,75.58241847157478 88.91914343833922,75.58241847157478 L 12.646456003189089,75.58241847157478 C 5.831712055206299,75.58241847157478 0.30777454376220703,67.82624255615472 0.30777454376220703,58.257758927106856 L 0.30777454376220703,17.740571637272836 C 0.30777454376220703,8.172923173069954 5.831712055206299,0.4175824224948883 12.646456003189089,0.4175824224948883 L 88.91914343833922,0.4175824224948883 C 95.73388738632201,0.4175824224948883 101.25782489776611,8.172923173069954 101.25782489776611,17.740571637272836 L 101.25782489776611,58.257758927106856 Z" fill="rgb(255, 255, 255)" stroke="rgb(0, 0, 0)" stroke-width="1.5" vector-effect="non-scaling-stroke"/></g><g transform="translate(485.17499999999995, 998.3) rotate(0, 45.5, 0)" width="91" height="34"><text text-decoration="none" x="22" fill="#000000" font-size="9pt" font-family="Arial"  y="13">Detail&#160;</text><text text-decoration="none" x="58" fill="#000000" font-size="9pt" font-family="Arial"  y="13">of</text><text text-decoration="none" x="69" fill="#000000" font-size="9pt" font-family="Arial"  y="13"></text><text text-decoration="none" x="4" fill="#000000" font-size="9pt" font-family="Arial"  y="35">opening&#160;</text><text text-decoration="none" x="52" fill="#000000" font-size="9pt" font-family="Arial"  y="35">hours&#160;</text><text text-decoration="none" x="87" fill="#4b4b4b" font-size="10pt" font-family="noto_regular"  y="35"></text></g></g><g id="2nkqky8tet"><mask id="127f1" x="185" y="685" width="310" height="235" maskUnits="userSpaceOnUse"><rect x="185" y="685" width="310" height="235" fill="white" /><rect x="211.171974522293" y="897.5" width="26" height="25" fill="black" /></mask><g mask="url(#127f1)"><path d="M 485,910 L 195,910 L 195,802.5 L 195,695 L 215,695" fill="none"/><path d="M 485,910 L 491.95652173913044,916.4971751412429 M 485,910 L 491.95652173913044,903.5028248587571 Z" fill="rgb(255,255,255)"/></g><g transform="translate(214.171974522293, 900.5)" width="20" height="19"><text text-decoration="none" x="1" fill="rgb(0, 0, 0)" font-size="9pt" font-family="Arial"  y="17">Set</text><text text-decoration="none" x="19" fill="#4b4b4b" font-size="10pt" font-family="noto_regular"  y="17"></text></g></g><g id="bof5mhh1cq"><mask id="10b96" x="138.95" y="631" width="350.95" height="399" maskUnits="userSpaceOnUse"><rect x="138.95" y="631" width="350.95" height="399" fill="white" /><rect x="255.1404580152672" y="1007.5" width="65" height="25" fill="black" /></mask><g mask="url(#10b96)"><path d="M 479.9,1020 L 148.95,1020 L 148.95,830.5 L 148.95,641 L 209.475,641 L 270,641 L 270,650" fill="none"/><path d="M 479.9,1020 L 486.8565217391304,1026.497175141243 M 479.9,1020 L 486.8565217391304,1013.5028248587571 Z" fill="rgb(255,255,255)"/></g><g transform="translate(258.1404580152672, 1010.5)" width="59" height="19"><text text-decoration="none" x="1.5" fill="rgb(0, 0, 0)" font-size="9pt" font-family="Arial"  y="17">Timetable</text><text text-decoration="none" x="57.5" fill="#4b4b4b" font-size="10pt" font-family="noto_regular"  y="17"></text></g></g><g id="46uu8ptah3"><mask id="5b6e0" x="572" y="787" width="281" height="136" maskUnits="userSpaceOnUse"><rect x="572" y="787" width="281" height="136" fill="white" /><rect x="614.8333333333334" y="897.5" width="62" height="25" fill="black" /></mask><g mask="url(#5b6e0)"><path d="M 585,910 L 712.500002670288,910 L 712.500002670288,855 L 712.500002670288,800 L 840,800" fill="none" stroke="#000000" stroke-width="1.5" stroke-linecap="round" stroke-linejoin="round"/><path d="M 840,800 L 831.304347826087,794.25 L 831.304347826087,805.75 Z" fill="rgb(0,0,0)" stroke="#000000" stroke-width="1.5" stroke-linecap="round" stroke-linejoin="round"/></g><g transform="translate(617.8333333333334, 900.5)" width="56" height="19"><text text-decoration="none" x="1.5" fill="rgb(0, 0, 0)" font-size="9pt" font-family="Arial"  y="17">Recorded</text><text text-decoration="none" x="54.5" fill="#4b4b4b" font-size="10pt" font-family="noto_regular"  y="17"></text></g></g><g id="azk1wcx9o5"><mask id="692d8" x="566.9" y="787" width="286.1" height="246" maskUnits="userSpaceOnUse"><rect x="566.9" y="787" width="286.1" height="246" fill="white" /><rect x="606.5746134214082" y="1007.5" width="65" height="25" fill="black" /></mask><g mask="url(#692d8)"><path d="M 579.9,1020 L 710.7327997207642,1020 L 710.7327997207642,910 L 710.7327997207642,800 L 840,800" fill="none" stroke="#000000" stroke-width="1.5" stroke-linecap="round" stroke-linejoin="round"/><path d="M 840,800 L 831.304347826087,794.25 L 831.304347826087,805.75 Z" fill="rgb(0,0,0)" stroke="#000000" stroke-width="1.5" stroke-linecap="round" stroke-linejoin="round"/></g><g transform="translate(609.5746134214082, 1010.5)" width="59" height="19"><text text-decoration="none" x="1.5" fill="rgb(0, 0, 0)" font-size="9pt" font-family="Arial"  y="17">Timetable</text><text text-decoration="none" x="57.5" fill="#4b4b4b" font-size="10pt" font-family="noto_regular"  y="17"></text></g></g></svg>