<svg xmlns="http://www.w3.org/2000/svg" xmlns:svg="http://www.w3.org/2000/svg" xmlns:xlink="http://www.w3.org/1999/xlink" version="1.0" height="525pt" width="1125pt" viewBox="15 277 1133 531" ><defs><style type="text/css">
            @font-face {
                font-family: 'noto_regular';
                src: url('https://app.creately.com/diagram/assets/fonts/noto/noto-regular.woff') format('woff'),
                     url('https://app.creately.com/diagram/assets/fonts/noto/noto-regular.woff2') format('woff2');
                font-weight: normal;
                font-style: normal;
            }
        p {
            margin: 0;
        }
        </style></defs><defs><style>
            span{ display: inline-block; }
        </style></defs><g id="o8pp6r80c2"><g transform="translate(165 425)"><rect x="0" y="0" width="100" height="50" fill="rgba(255,255,255,1)" stroke="#5e5ca7" stroke-width="1.5" stroke-linecap="round" stroke-linejoin="round"/></g><g transform="translate(179.5, 432.5) rotate(0, 35.5, 17.5)" width="71" height="35"><text text-decoration="none" x="7" fill="rgb(0, 0, 0)" font-weight="bold" font-size="10pt" font-family="Arial"  y="12">Customer</text><text text-decoration="none" x="64" fill="rgb(0, 0, 0)" font-weight="bold" font-size="10pt" font-family="Arial"  y="12"></text><text text-decoration="none" x="35.5" fill="#4b4b4b" font-size="10pt" font-family="noto_regular"  y="31"></text></g></g><g id="zqxmo9b2ac"><g transform="translate(305 430)"><path d="M 100,25 L 50,50 L 0,25 L 50,0 Z" fill="rgb(255, 255, 255)" stroke="rgb(94, 92, 167)" stroke-width="1.5" vector-effect="non-scaling-stroke"/></g><g transform="translate(320, 443.5) rotate(0, 0, 0)" width="80" height="19"><text text-decoration="none" x="0" fill="#000000" font-weight="bold" font-size="11pt" font-family="Arial"  y="15">Signs&#160;</text><text text-decoration="none" x="42" fill="#000000" font-weight="bold" font-size="11pt" font-family="Arial"  y="15">Up&#160;</text><text text-decoration="none" x="64" fill="#4b4b4b" font-size="10pt" font-family="noto_regular"  y="15"></text></g></g><g id="raikerk5sc"><g transform="translate(445 430)"><rect x="0" y="0" width="100" height="50" fill="rgba(255,255,255,1)" stroke="#5e5ca7" stroke-width="1.5" stroke-linecap="round" stroke-linejoin="round"/></g><g transform="translate(450, 429.5) rotate(0, 45, 25.5)" width="90" height="51"><text text-decoration="none" x="31.5" fill="rgb(0, 0, 0)" font-weight="bold" font-size="10pt" font-family="Arial"  y="12">Gym&#160;</text><text text-decoration="none" x="9" fill="rgb(0, 0, 0)" font-weight="bold" font-size="10pt" font-family="Arial"  y="28">Membership</text><text text-decoration="none" x="81" fill="rgb(0, 0, 0)" font-weight="bold" font-size="10pt" font-family="Arial"  y="28"></text><text text-decoration="none" x="45" fill="#4b4b4b" font-size="10pt" font-family="noto_regular"  y="47"></text></g></g><g id="16hl3ziteg"><g><path d="M 445,455 L 405,455" fill="none" stroke="#5e5ca7" stroke-width="1.5" stroke-linecap="round" stroke-linejoin="round"/></g></g><g id="16c84szyxw"><g><path d="M 265,450 L 305,455" fill="none" stroke="#5e5ca7" stroke-width="1.5" stroke-linecap="round" stroke-linejoin="round"/></g></g><g id="166zx6teku"><g transform="translate(785 410)"><rect x="0" y="0" width="100" height="50" fill="rgba(255,255,255,1)" stroke="#5e5ca7" stroke-width="1.5" stroke-linecap="round" stroke-linejoin="round"/></g><g transform="translate(818.5, 417.5) rotate(0, 16.5, 17.5)" width="33" height="35"><text text-decoration="none" x="3" fill="rgb(0, 0, 0)" font-weight="bold" font-size="10pt" font-family="Arial"  y="12">Gym</text><text text-decoration="none" x="30" fill="rgb(0, 0, 0)" font-weight="bold" font-size="10pt" font-family="Arial"  y="12"></text><text text-decoration="none" x="16.5" fill="#4b4b4b" font-size="10pt" font-family="noto_regular"  y="31"></text></g></g><g id="1gtuv0jy2h"><g transform="translate(605 415)"><path d="M 100,25 L 50,50 L 0,25 L 50,0 Z" fill="rgb(255, 255, 255)" stroke="rgb(94, 92, 167)" stroke-width="1.5" vector-effect="non-scaling-stroke"/></g><g transform="translate(631, 428.5) rotate(0, 0, 0)" width="53" height="19"><text text-decoration="none" x="0" fill="#000000" font-weight="bold" font-size="11pt" font-family="Arial"  y="15">Hosts&#160;</text><text text-decoration="none" x="44" fill="#4b4b4b" font-size="10pt" font-family="noto_regular"  y="15"></text></g></g><g id="fs3k7giz7g"><g><path d="M 785,435 L 705,440" fill="none" stroke="#5e5ca7" stroke-width="1.5" stroke-linecap="round" stroke-linejoin="round"/></g></g><g id="1m9hnlffkr"><g><path d="M 545,455 L 605,440" fill="none" stroke="#5e5ca7" stroke-width="1.5" stroke-linecap="round" stroke-linejoin="round"/></g></g><g id="1jni55ffd3"><g transform="translate(620 640)"><rect x="0" y="0" width="100" height="50" fill="rgba(255,255,255,1)" stroke="#5e5ca7" stroke-width="1.5" stroke-linecap="round" stroke-linejoin="round"/></g><g transform="translate(634.5, 647.5) rotate(0, 35.5, 17.5)" width="71" height="35"><text text-decoration="none" x="22" fill="rgb(0, 0, 0)" font-weight="bold" font-size="10pt" font-family="Arial"  y="12">Gym&#160;</text><text text-decoration="none" x="7.5" fill="rgb(0, 0, 0)" font-weight="bold" font-size="10pt" font-family="Arial"  y="31">Employee</text><text text-decoration="none" x="63.5" fill="#4b4b4b" font-size="10pt" font-family="noto_regular"  y="31"></text></g></g><g id="wi23gs762y"><g transform="translate(750 520)"><path d="M 100,25 L 50,50 L 0,25 L 50,0 Z" fill="rgb(255, 255, 255)" stroke="rgb(94, 92, 167)" stroke-width="1.5" vector-effect="non-scaling-stroke"/></g><g transform="translate(766, 533.5) rotate(0, 0, 0)" width="76" height="19"><text text-decoration="none" x="0" fill="#000000" font-weight="bold" font-size="11pt" font-family="Arial"  y="15">Employs&#160;</text><text text-decoration="none" x="61" fill="#4b4b4b" font-size="10pt" font-family="noto_regular"  y="15"></text></g></g><g id="1k2ioa839p"><g><path d="M 835,460 L 800,520" fill="none" stroke="#5e5ca7" stroke-width="1.5" stroke-linecap="round" stroke-linejoin="round"/></g></g><g id="gmz0q4sa2t"><g><path d="M 670,640 L 800,570" fill="none" stroke="#5e5ca7" stroke-width="1.5" stroke-linecap="round" stroke-linejoin="round"/></g></g><g id="2gy4ycf03u"><g transform="translate(325 645)"><rect x="0" y="0" width="110.00000238418579" height="50" fill="rgba(255,255,255,1)" stroke="#5e5ca7" stroke-width="1.5" stroke-linecap="round" stroke-linejoin="round"/></g><g transform="translate(329.0000011920929, 660.5) rotate(0, 51, 9.5)" width="102" height="19"><text text-decoration="none" x="10.5" fill="rgb(0, 0, 0)" font-weight="bold" font-size="10pt" font-family="Arial"  y="15">Gym&#160;</text><text text-decoration="none" x="40.5" fill="rgb(0, 0, 0)" font-weight="bold" font-size="10pt" font-family="Arial"  y="15">Manager</text><text text-decoration="none" x="91.5" fill="#4b4b4b" font-size="10pt" font-family="noto_regular"  y="15"></text></g></g><g id="42s9hvu7in"><g transform="translate(490 640)"><path d="M 100,25 L 50,50 L 0,25 L 50,0 Z" fill="rgb(255, 255, 255)" stroke="rgb(94, 92, 167)" stroke-width="1.5" vector-effect="non-scaling-stroke"/></g><g transform="translate(505.5, 653.5) rotate(0, 0, 0)" width="81" height="19"><text text-decoration="none" x="0" fill="#000000" font-weight="bold" font-size="11pt" font-family="Arial"  y="15">Manages&#160;</text><text text-decoration="none" x="66" fill="#4b4b4b" font-size="10pt" font-family="noto_regular"  y="15"></text></g></g><g id="4kuuvm2bs9"><g><path d="M 435,670 L 490,665" fill="none" stroke="#5e5ca7" stroke-width="1.5" stroke-linecap="round" stroke-linejoin="round"/></g></g><g id="16cczqf4t4"><g><path d="M 620,665 L 590,665" fill="none" stroke="#5e5ca7" stroke-width="1.5" stroke-linecap="round" stroke-linejoin="round"/></g></g><g id="2a9l5h6idu"><g transform="translate(900 635)"><rect x="0" y="0" width="100" height="50" fill="rgba(255,255,255,1)" stroke="#5e5ca7" stroke-width="1.5" stroke-linecap="round" stroke-linejoin="round"/></g><g transform="translate(919, 642.5) rotate(0, 31, 17.5)" width="62" height="35"><text text-decoration="none" x="7" fill="rgb(0, 0, 0)" font-weight="bold" font-size="10pt" font-family="Arial"  y="12">Workout&#160;</text><text text-decoration="none" x="14.5" fill="rgb(0, 0, 0)" font-weight="bold" font-size="10pt" font-family="Arial"  y="31">Class</text><text text-decoration="none" x="47.5" fill="#4b4b4b" font-size="10pt" font-family="noto_regular"  y="31"></text></g></g><g id="2io8sjvtvg"><g transform="translate(755 635)"><path d="M 100,25 L 50,50 L 0,25 L 50,0 Z" fill="rgb(255, 255, 255)" stroke="rgb(94, 92, 167)" stroke-width="1.5" vector-effect="non-scaling-stroke"/></g><g transform="translate(773, 648.5) rotate(0, 0, 0)" width="72" height="19"><text text-decoration="none" x="0" fill="#000000" font-weight="bold" font-size="11pt" font-family="Arial"  y="15">Teaches&#160;</text><text text-decoration="none" x="61" fill="#4b4b4b" font-size="10pt" font-family="noto_regular"  y="15"></text></g></g><g id="117ru2fdn2"><g><path d="M 900,660 L 855,660" fill="none" stroke="#5e5ca7" stroke-width="1.5" stroke-linecap="round" stroke-linejoin="round"/></g></g><g id="19v9g86xeq"><g><path d="M 720,665 L 755,660" fill="none" stroke="#5e5ca7" stroke-width="1.5" stroke-linecap="round" stroke-linejoin="round"/></g></g><g id="95ufg0ksmy"><g transform="translate(675 305)"><rect x="0" y="0" width="100" height="50" fill="rgba(255,255,255,1)" stroke="#5e5ca7" stroke-width="1.5" stroke-linecap="round" stroke-linejoin="round"/></g><g transform="translate(698, 312.5) rotate(0, 27, 17.5)" width="54" height="35"><text text-decoration="none" x="6" fill="rgb(0, 0, 0)" font-weight="bold" font-size="10pt" font-family="Arial"  y="12">Gym&#160;</text><text text-decoration="none" x="36" fill="rgb(0, 0, 0)" font-weight="bold" font-size="10pt" font-family="Arial"  y="12">IT&#160;</text><text text-decoration="none" x="5" fill="rgb(0, 0, 0)" font-weight="bold" font-size="10pt" font-family="Arial"  y="31">System</text><text text-decoration="none" x="49" fill="#4b4b4b" font-size="10pt" font-family="noto_regular"  y="31"></text></g></g><g id="3y79dyacp4"><g transform="translate(525 360)"><path d="M 100,25 L 50,50 L 0,25 L 50,0 Z" fill="rgb(255, 255, 255)" stroke="rgb(94, 92, 167)" stroke-width="1.5" vector-effect="non-scaling-stroke"/></g><g transform="translate(548, 373.5) rotate(0, 0, 0)" width="58" height="19"><text text-decoration="none" x="0" fill="#000000" font-weight="bold" font-size="11pt" font-family="Arial"  y="15">Tracks&#160;</text><text text-decoration="none" x="50" fill="#4b4b4b" font-size="10pt" font-family="noto_regular"  y="15"></text></g></g><g id="122im2ngmo"><g><path d="M 675,330 L 575,360" fill="none" stroke="#5e5ca7" stroke-width="1.5" stroke-linecap="round" stroke-linejoin="round"/></g></g><g id="2bagyqc76x"><g><path d="M 495,430 L 525,385" fill="none" stroke="#5e5ca7" stroke-width="1.5" stroke-linecap="round" stroke-linejoin="round"/></g></g><g id="c2i46wmuzs"><g transform="translate(20 375)"><ellipse cx="50" cy="25" rx="50" ry="25" fill="rgba(255,255,255,1)" stroke="#5e5ca7" stroke-width="1.5" stroke-linecap="round" stroke-linejoin="round"/></g><g transform="translate(29.5, 390.5) rotate(0, 40.5, 9.5)" width="81" height="19"><text text-decoration="none" x="9" fill="rgb(0, 0, 0)" font-weight="bold" font-size="10pt" font-family="Arial"  y="15">First&#160;</text><text text-decoration="none" x="38" fill="rgb(0, 0, 0)" font-weight="bold" font-size="10pt" font-family="Arial"  y="15">Name</text><text text-decoration="none" x="72" fill="#4b4b4b" font-size="10pt" font-family="noto_regular"  y="15"></text></g></g><g id="2cftk8lmig"><g transform="translate(30 455)"><ellipse cx="50" cy="25" rx="50" ry="25" fill="rgba(255,255,255,1)" stroke="#5e5ca7" stroke-width="1.5" stroke-linecap="round" stroke-linejoin="round"/></g><g transform="translate(40.5, 462.5) rotate(0, 39.5, 17.5)" width="79" height="35"><text text-decoration="none" x="8.5" fill="rgb(0, 0, 0)" font-weight="bold" font-size="10pt" font-family="Arial"  y="12">Last&#160;</text><text text-decoration="none" x="36.5" fill="rgb(0, 0, 0)" font-weight="bold" font-size="10pt" font-family="Arial"  y="12">Name</text><text text-decoration="none" x="70.5" fill="rgb(0, 0, 0)" font-weight="bold" font-size="10pt" font-family="Arial"  y="12"></text><text text-decoration="none" x="39.5" fill="#4b4b4b" font-size="10pt" font-family="noto_regular"  y="31"></text></g></g><g id="5ylsdlihgn"><g transform="translate(130 345)"><ellipse cx="50" cy="25" rx="50" ry="25" fill="rgba(255,255,255,1)" stroke="#5e5ca7" stroke-width="1.5" stroke-linecap="round" stroke-linejoin="round"/></g><g transform="translate(150.5, 360.5) rotate(0, 29.5, 9.5)" width="59" height="19"><text text-decoration="none" x="5" fill="rgb(0, 0, 0)" font-weight="bold" font-size="10pt" font-family="Arial"  y="15">Address</text><text text-decoration="none" x="54" fill="#4b4b4b" font-size="10pt" font-family="noto_regular"  y="15"></text></g></g><g id="vrwlrp20xg"><g transform="translate(140 495)"><ellipse cx="50" cy="25" rx="50" ry="25" fill="rgba(255,255,255,1)" stroke="#5e5ca7" stroke-width="1.5" stroke-linecap="round" stroke-linejoin="round"/></g><g transform="translate(161, 502.5) rotate(0, 29, 17.5)" width="58" height="35"><text text-decoration="underline" x="11" fill="rgb(0, 0, 0)" font-weight="bold" font-size="10pt" font-family="Arial"  y="12">Phone&#160;</text><text text-decoration="underline" x="6" fill="rgb(0, 0, 0)" font-weight="bold" font-size="10pt" font-family="Arial"  y="31">Number</text><text text-decoration="none" x="52" fill="#4b4b4b" font-size="10pt" font-family="noto_regular"  y="31"></text></g></g><g id="2a2qvolk39"><g><path d="M 190,495 L 190,485 L 202.5,485 L 215,485 L 215,475" fill="none" stroke="#5e5ca7" stroke-width="1.5" stroke-linecap="round" stroke-linejoin="round"/></g></g><g id="2ihpugdt1q"><g><path d="M 130,480 L 147.5,480 L 147.5,465 L 147.5,450 L 165,450" fill="none" stroke="#5e5ca7" stroke-width="1.5" stroke-linecap="round" stroke-linejoin="round"/></g></g><g id="c1066jf8k9"><g><path d="M 120,400 L 142.5,400 L 142.5,405 L 142.5,410 L 161.25,410 L 180,410 L 180,430" fill="none" stroke="#5e5ca7" stroke-width="1.5" stroke-linecap="round" stroke-linejoin="round"/></g></g><g id="ulbyugrpf4"><g><path d="M 180,395 L 180,410 L 197.5,410 L 215,410 L 215,425" fill="none" stroke="#5e5ca7" stroke-width="1.5" stroke-linecap="round" stroke-linejoin="round"/></g></g><g id="10qlmqrceg"><g transform="translate(840 280)"><ellipse cx="60.00000238418579" cy="30.753707885742188" rx="60.00000238418579" ry="30.753707885742188" fill="rgba(255,255,255,1)" stroke="#5e5ca7" stroke-width="1.5" stroke-linecap="round" stroke-linejoin="round"/></g><g transform="translate(845.5000023841858, 293.2537078857422) rotate(0, 54.5, 17.5)" width="109" height="35"><text text-decoration="underline" x="6.5" fill="rgb(0, 0, 0)" font-weight="bold" font-size="10pt" font-family="Arial"  y="12">Customer&#160;</text><text text-decoration="underline" x="66.5" fill="rgb(0, 0, 0)" font-weight="bold" font-size="10pt" font-family="Arial"  y="12">Phone&#160;</text><text text-decoration="underline" x="31.5" fill="rgb(0, 0, 0)" font-weight="bold" font-size="10pt" font-family="Arial"  y="31">Number</text><text text-decoration="none" x="77.5" fill="#4b4b4b" font-size="10pt" font-family="noto_regular"  y="31"></text></g></g><g id="1hg0u0lvpv"><g><path d="M 840,310 L 807.5,310 L 807.5,320 L 807.5,330 L 775,330" fill="none" stroke="#5e5ca7" stroke-width="1.5" stroke-linecap="round" stroke-linejoin="round"/></g></g><g id="29z315tna7"><g transform="translate(335 565)"><ellipse cx="50" cy="25" rx="50" ry="25" fill="rgba(255,255,255,1)" stroke="#5e5ca7" stroke-width="1.5" stroke-linecap="round" stroke-linejoin="round"/></g><g transform="translate(344.5, 580.5) rotate(0, 40.5, 9.5)" width="81" height="19"><text text-decoration="none" x="9" fill="rgb(0, 0, 0)" font-weight="bold" font-size="10pt" font-family="Arial"  y="15">First&#160;</text><text text-decoration="none" x="38" fill="rgb(0, 0, 0)" font-weight="bold" font-size="10pt" font-family="Arial"  y="15">Name</text><text text-decoration="none" x="72" fill="#4b4b4b" font-size="10pt" font-family="noto_regular"  y="15"></text></g></g><g id="2l7co51yy2"><g transform="translate(205 595)"><ellipse cx="50" cy="25" rx="50" ry="25" fill="rgba(255,255,255,1)" stroke="#5e5ca7" stroke-width="1.5" stroke-linecap="round" stroke-linejoin="round"/></g><g transform="translate(215.5, 610.5) rotate(0, 39.5, 9.5)" width="79" height="19"><text text-decoration="none" x="8.5" fill="rgb(0, 0, 0)" font-weight="bold" font-size="10pt" font-family="Arial"  y="15">Last&#160;</text><text text-decoration="none" x="36.5" fill="rgb(0, 0, 0)" font-weight="bold" font-size="10pt" font-family="Arial"  y="15">Name</text><text text-decoration="none" x="70.5" fill="#4b4b4b" font-size="10pt" font-family="noto_regular"  y="15"></text></g></g><g id="zf1m5dpeb3"><g><path d="M 305,620 L 315,620 L 315,645 L 315,670 L 325,670" fill="none" stroke="#5e5ca7" stroke-width="1.5" stroke-linecap="round" stroke-linejoin="round"/></g></g><g id="253vk96s7r"><g><path d="M 385,615 L 385,630 L 382.5,630 L 380,630 L 380,645" fill="none" stroke="#5e5ca7" stroke-width="1.5" stroke-linecap="round" stroke-linejoin="round"/></g></g><g id="2gr4nrtvpk"><g transform="translate(175 665)"><ellipse cx="50" cy="25" rx="50" ry="25" fill="rgba(255,255,255,1)" stroke="#5e5ca7" stroke-width="1.5" stroke-linecap="round" stroke-linejoin="round"/></g><g transform="translate(179, 680.5) rotate(0, 46, 9.5)" width="92" height="19"><text text-decoration="underline" x="10.5" fill="rgb(0, 0, 0)" font-weight="bold" font-size="10pt" font-family="Arial"  y="15">Employee&#160;</text><text text-decoration="underline" x="69.5" fill="rgb(0, 0, 0)" font-weight="bold" font-size="10pt" font-family="Arial"  y="15">ID</text><text text-decoration="none" x="81.5" fill="#4b4b4b" font-size="10pt" font-family="noto_regular"  y="15"></text></g></g><g id="3lzauvjo9c"><g><path d="M 275,690 L 300,690 L 300,680 L 300,670 L 325,670" fill="none" stroke="#5e5ca7" stroke-width="1.5" stroke-linecap="round" stroke-linejoin="round"/></g></g><g id="1lywhr7n7h"><g transform="translate(725 730)"><ellipse cx="50" cy="25" rx="50" ry="25" fill="rgba(255,255,255,1)" stroke="#5e5ca7" stroke-width="1.5" stroke-linecap="round" stroke-linejoin="round"/></g><g transform="translate(734.5, 745.5) rotate(0, 40.5, 9.5)" width="81" height="19"><text text-decoration="none" x="9" fill="rgb(0, 0, 0)" font-weight="bold" font-size="10pt" font-family="Arial"  y="15">First&#160;</text><text text-decoration="none" x="38" fill="rgb(0, 0, 0)" font-weight="bold" font-size="10pt" font-family="Arial"  y="15">Name</text><text text-decoration="none" x="72" fill="#4b4b4b" font-size="10pt" font-family="noto_regular"  y="15"></text></g></g><g id="1on6vlxwed"><g transform="translate(615 755)"><ellipse cx="50" cy="25" rx="50" ry="25" fill="rgba(255,255,255,1)" stroke="#5e5ca7" stroke-width="1.5" stroke-linecap="round" stroke-linejoin="round"/></g><g transform="translate(625.5, 770.5) rotate(0, 39.5, 9.5)" width="79" height="19"><text text-decoration="none" x="8.5" fill="rgb(0, 0, 0)" font-weight="bold" font-size="10pt" font-family="Arial"  y="15">Last&#160;</text><text text-decoration="none" x="36.5" fill="rgb(0, 0, 0)" font-weight="bold" font-size="10pt" font-family="Arial"  y="15">Name</text><text text-decoration="none" x="70.5" fill="#4b4b4b" font-size="10pt" font-family="noto_regular"  y="15"></text></g></g><g id="7kb3iookyz"><g transform="translate(505 725)"><ellipse cx="50" cy="25" rx="50" ry="25" fill="rgba(255,255,255,1)" stroke="#5e5ca7" stroke-width="1.5" stroke-linecap="round" stroke-linejoin="round"/></g><g transform="translate(509, 740.5) rotate(0, 46, 9.5)" width="92" height="19"><text text-decoration="none" x="10.5" fill="rgb(0, 0, 0)" font-weight="bold" font-size="10pt" font-family="Arial"  y="15">Employee&#160;</text><text text-decoration="none" x="69.5" fill="rgb(0, 0, 0)" font-weight="bold" font-size="10pt" font-family="Arial"  y="15">ID</text><text text-decoration="none" x="81.5" fill="#4b4b4b" font-size="10pt" font-family="noto_regular"  y="15"></text></g></g><g id="1zckqbw4d8"><g><path d="M 665,755 L 665,722.5 L 667.5,722.5 L 670,722.5 L 670,690" fill="none" stroke="#5e5ca7" stroke-width="1.5" stroke-linecap="round" stroke-linejoin="round"/></g></g><g id="15bp55q7vd"><g><path d="M 555,725 L 555,707.5 L 590,707.5 L 625,707.5 L 625,695" fill="none" stroke="#5e5ca7" stroke-width="1.5" stroke-linecap="round" stroke-linejoin="round"/></g></g><g id="zfonzdko9o"><g><path d="M 775,730 L 775,710 L 740,710 L 705,710 L 705,685" fill="none" stroke="#5e5ca7" stroke-width="1.5" stroke-linecap="round" stroke-linejoin="round"/></g></g><g id="292i9t0vqw"><g transform="translate(915 540)"><ellipse cx="62.5" cy="30.753707885742188" rx="62.5" ry="30.753707885742188" fill="rgba(255,255,255,1)" stroke="#5e5ca7" stroke-width="1.5" stroke-linecap="round" stroke-linejoin="round"/></g><g transform="translate(924.5, 553.2537078857422) rotate(0, 53, 17.5)" width="106" height="35"><text text-decoration="underline" x="3.5" fill="rgb(0, 0, 0)" font-weight="bold" font-size="10pt" font-family="Arial"  y="12">Workout&#160;</text><text text-decoration="underline" x="54.5" fill="rgb(0, 0, 0)" font-weight="bold" font-size="10pt" font-family="Arial"  y="12">Class&#160;</text><text text-decoration="underline" x="90.5" fill="rgb(0, 0, 0)" font-weight="bold" font-size="10pt" font-family="Arial"  y="12">ID&#160;</text><text text-decoration="underline" x="30" fill="rgb(0, 0, 0)" font-weight="bold" font-size="10pt" font-family="Arial"  y="31">Number</text><text text-decoration="none" x="76" fill="#4b4b4b" font-size="10pt" font-family="noto_regular"  y="31"></text></g></g><g id="6phqy3hyog"><g><path d="M 950,635 L 950,618.2537078857422 L 955,618.2537078857422 L 960,618.2537078857422 L 960,605" fill="none" stroke="#5e5ca7" stroke-width="1.5" stroke-linecap="round" stroke-linejoin="round"/></g></g><g id="1lmgamflf7"><g transform="translate(1045 635)"><ellipse cx="50" cy="25" rx="50" ry="25" fill="rgba(255,255,255,1)" stroke="#5e5ca7" stroke-width="1.5" stroke-linecap="round" stroke-linejoin="round"/></g><g transform="translate(1051.5, 642.5) rotate(0, 43.5, 17.5)" width="87" height="35"><text text-decoration="none" x="1.5" fill="rgb(0, 0, 0)" font-weight="bold" font-size="10pt" font-family="Arial"  y="12">Workout&#160;</text><text text-decoration="none" x="52.5" fill="rgb(0, 0, 0)" font-weight="bold" font-size="10pt" font-family="Arial"  y="12">Class&#160;</text><text text-decoration="none" x="26.5" fill="rgb(0, 0, 0)" font-weight="bold" font-size="10pt" font-family="Arial"  y="31">Name</text><text text-decoration="none" x="60.5" fill="#4b4b4b" font-size="10pt" font-family="noto_regular"  y="31"></text></g></g><g id="1fs9z93c3k"><g><path d="M 1045,660 L 1000,660" fill="none" stroke="#5e5ca7" stroke-width="1.5" stroke-linecap="round" stroke-linejoin="round"/></g></g><g id="7ch8y1gms8"><g transform="translate(915 350)"><ellipse cx="50" cy="25" rx="50" ry="25" fill="rgba(255,255,255,1)" stroke="#5e5ca7" stroke-width="1.5" stroke-linecap="round" stroke-linejoin="round"/></g><g transform="translate(943.5, 365.5) rotate(0, 21.5, 9.5)" width="43" height="19"><text text-decoration="none" x="6" fill="rgb(0, 0, 0)" font-weight="bold" font-size="10pt" font-family="Arial"  y="15">Name</text><text text-decoration="none" x="40" fill="#4b4b4b" font-size="10pt" font-family="noto_regular"  y="15"></text></g></g><g id="2cg51q6p0t"><g><path d="M 915,375 L 835,375 L 835,410" fill="none" stroke="#5e5ca7" stroke-width="1.5" stroke-linecap="round" stroke-linejoin="round"/></g></g><g id="2nrbztt19x"><g transform="translate(980 415)"><ellipse cx="50" cy="25" rx="50" ry="25" fill="rgba(255,255,255,1)" stroke="#5e5ca7" stroke-width="1.5" stroke-linecap="round" stroke-linejoin="round"/></g><g transform="translate(1000.5, 430.5) rotate(0, 29.5, 9.5)" width="59" height="19"><text text-decoration="none" x="5" fill="rgb(0, 0, 0)" font-weight="bold" font-size="10pt" font-family="Arial"  y="15">Address</text><text text-decoration="none" x="54" fill="#4b4b4b" font-size="10pt" font-family="noto_regular"  y="15"></text></g></g><g id="gglom1yb7g"><g><path d="M 980,440 L 932.5,440 L 932.5,437.5 L 932.5,435 L 885,435" fill="none" stroke="#5e5ca7" stroke-width="1.5" stroke-linecap="round" stroke-linejoin="round"/></g></g><g id="8x1hg942xb"><g transform="translate(420 510)"><ellipse cx="82.91667103767395" cy="20.59110552072525" rx="82.91667103767395" ry="20.59110552072525" fill="rgba(255,255,255,1)" stroke="#5e5ca7" stroke-width="1.5" stroke-linecap="round" stroke-linejoin="round"/></g><g transform="translate(428.41667103767395, 521.0911055207253) rotate(0, 74.5, 9.5)" width="149" height="19"><text text-decoration="none" x="16" fill="rgb(0, 0, 0)" font-weight="bold" font-size="10pt" font-family="Arial"  y="15">Gym&#160;</text><text text-decoration="none" x="46" fill="rgb(0, 0, 0)" font-weight="bold" font-size="10pt" font-family="Arial"  y="15">Membership&#160;</text><text text-decoration="none" x="121" fill="rgb(0, 0, 0)" font-weight="bold" font-size="10pt" font-family="Arial"  y="15">ID</text><text text-decoration="none" x="133" fill="#4b4b4b" font-size="10pt" font-family="noto_regular"  y="15"></text></g></g><g id="vkv0oc7hpu"><g transform="translate(30 520)"><ellipse cx="50" cy="25" rx="50" ry="25" fill="rgba(255,255,255,1)" stroke="#5e5ca7" stroke-width="1.5" stroke-linecap="round" stroke-linejoin="round"/></g><g transform="translate(46, 535.5) rotate(0, 34, 9.5)" width="68" height="19"><text text-decoration="none" x="8" fill="rgb(0, 0, 0)" font-weight="bold" font-size="10pt" font-family="Arial"  y="15">Birthdate</text><text text-decoration="none" x="60" fill="#4b4b4b" font-size="10pt" font-family="noto_regular"  y="15"></text></g></g><g id="2pxqcabl28"><g><path d="M 165,450 L 147.5,450 L 147.5,497.5 L 147.5,545 L 130,545" fill="none" stroke="#5e5ca7" stroke-width="1.5" stroke-linecap="round" stroke-linejoin="round"/></g></g></svg>